<svg width="49" height="49" viewBox="0 0 49 49" fill="none" xmlns="http://www.w3.org/2000/svg">
<circle cx="24.5" cy="24.5" r="24.5" fill="#D9D9D9"/>
<mask id="mask0_125_705" style="mask-type:alpha" maskUnits="userSpaceOnUse" x="7" y="8" width="36" height="41">
<g clip-path="url(#clip0_125_705)">
<path d="M24.9016 28.9179C30.4794 28.9179 35 24.423 35 18.8769C35 13.3308 30.4794 8.83594 24.9016 8.83594C19.3239 8.83594 14.8033 13.3308 14.8033 18.8769C14.8033 24.423 19.3239 28.9179 24.9016 28.9179ZM21.2962 32.6833C13.5252 32.6833 7.22949 38.9432 7.22949 46.67C7.22949 47.9565 8.27878 48.9999 9.57263 48.9999H40.2306C41.5245 48.9999 42.5738 47.9565 42.5738 46.67C42.5738 38.9432 36.2781 32.6833 28.5071 32.6833H21.2962Z" fill="black"/>
</g>
</mask>
<g mask="url(#mask0_125_705)">
<circle cx="24.5" cy="24.5" r="24.5" fill="#3D7B30"/>
</g>
<defs>
<clipPath id="clip0_125_705">
<rect width="35.3443" height="40.1639" fill="white" transform="translate(7.22949 8.83594)"/>
</clipPath>
</defs>
</svg>
