<svg width="50" height="50" viewBox="0 0 50 50" fill="none" xmlns="http://www.w3.org/2000/svg">
<circle cx="25" cy="25" r="25" fill="#CFEACA"/>
<path d="M30.4381 12.9531L27.9776 15.4134L34.5863 22.0216L37.0468 19.5613C38.3177 18.2905 38.3177 16.2318 37.0468 14.961L35.0439 12.9531C33.7729 11.6823 31.7141 11.6823 30.4431 12.9531H30.4381ZM26.8287 16.5622L14.9787 28.4164C14.45 28.945 14.0636 29.6008 13.8501 30.3175L12.0505 36.4327C11.9234 36.8648 12.0403 37.3273 12.3555 37.6425C12.6707 37.9577 13.1333 38.0746 13.5603 37.9526L19.676 36.1531C20.3928 35.9396 21.0486 35.5533 21.5773 35.0246L33.4374 23.1705L26.8287 16.5622Z" fill="#3D7B30"/>
</svg>
