<svg id="Layer_2" data-name="Layer 2" xmlns="http://www.w3.org/2000/svg" xmlns:xlink="http://www.w3.org/1999/xlink" viewBox="0 0 400 300" width="406" height="306" class="illustration styles_illustrationTablet__1DWOa"><defs><linearGradient id="linear-gradient" x1="104.05" y1="188.13" x2="144.87" y2="155.58" gradientUnits="userSpaceOnUse"><stop offset="0" stop-color="#16a79e"></stop><stop offset="0.99" stop-color="#225870"></stop></linearGradient><linearGradient id="linear-gradient-2" x1="203.65" y1="260.98" x2="224.11" y2="244.67" xlink:href="#linear-gradient"></linearGradient><linearGradient id="linear-gradient-3" x1="326.15" y1="199.83" x2="341.88" y2="187.29" xlink:href="#linear-gradient"></linearGradient></defs><title>PP</title><path d="M194.71,288.38,15,182.16c-5.72-3.21-10.63-8.49-5.05-11.94l180.37-104c2.71-1.68,6.82-2.78,9.57-1.18L388.53,174.57c5.72,3.32,6.75,12.6,1,15.93L218.4,288.21A23.9,23.9,0,0,1,194.71,288.38Z" fill="#16a79e"></path><polygon points="75.64 196.77 166.75 152.15 82.92 203.48 75.64 196.77" fill="url(#linear-gradient)"></polygon><path d="M211,277.29c28.13-9.45,23.35-16.28,24.35-34L211.53,232l-32.31,20.54C185.22,259.34,203.19,272.42,211,277.29Z" fill="url(#linear-gradient-2)"></path><polygon points="311.16 42.85 287.65 29.01 287.65 105.65 311.16 119.74 311.16 42.85" fill="#5AB045" opacity="0.42"></polygon><polygon points="342.25 60.99 318.74 47.15 318.74 123.79 342.25 137.88 342.25 60.99" fill="#5AB045" opacity="0.42"></polygon><path d="M88.62,62.95A2.49,2.49,0,0,1,91,62.81a1.82,1.82,0,0,1,.94,1.95c0,.45,0,.88,0,1.32s0,.65.28.81.27.65.2,1c-.15.8-.43,1.61-.67,2.4a3.89,3.89,0,0,0-.2.58,17.44,17.44,0,0,0-.23,4.31c0,.2.17.4.31.43A25.62,25.62,0,0,0,94.4,76a4.12,4.12,0,0,0,1.08-.3c.37-.09.75-.14,1.12-.2a1.47,1.47,0,0,1,1.74,1,34.63,34.63,0,0,1,1.33,3.3A11.71,11.71,0,0,1,99.87,82c0,.61.12,1.21.18,1.81.09.78.19,1.54.27,2.34.05.53.07,1.07.08,1.62,0,2.17.2,4.26.44,6.32.34,3,.44,6.14.48,9.3,0,2-.15,4.13-.34,6.24a14.11,14.11,0,0,0,.18,2.85,5,5,0,0,1-.09,1.28,17.66,17.66,0,0,1-.54,1.92,3.2,3.2,0,0,1-1.34,1.83,1.29,1.29,0,0,1-.81.16.52.52,0,0,1-.4-.4,11.39,11.39,0,0,1,.65-7.57,2.68,2.68,0,0,0,.17-1.15A96.17,96.17,0,0,1,97.54,94.1a28.69,28.69,0,0,0-.65-4.61,3,3,0,0,0-.25-.54c-.2.53-.36.88-.46,1.24a16.18,16.18,0,0,0-.67,5.33c.13,1.54.25,3.09.41,4.62.2,1.82.39,3.65.68,5.41a39,39,0,0,1,.25,9.72c-.21,2.27-.59,4.6-.89,6.9-.27,2.11-.69,4.28-.76,6.31a29,29,0,0,0,.53,7.55,17.69,17.69,0,0,1,.08,7.56c-.62,3.15-1.06,6.29-1.59,9.43a3.1,3.1,0,0,0,.37,2.42A17.3,17.3,0,0,0,96.06,157l.15.11c.13.21.25.44.38.66-.25.29-.49.73-.74.87-1.15.59-2.3,1.13-3.46,1.65-.49.21-.88-.5-.82-1.29a2.58,2.58,0,0,0-.06-.81,5.61,5.61,0,0,1,.2-2.66,11.8,11.8,0,0,0,.13-4.58,58.86,58.86,0,0,0-.63-6.23,12.73,12.73,0,0,1-.1-2.55c.06-1.84.05-3.63,0-5.4-.24-4.33-.36-8.72-.56-13.07-.09-2-.25-4-.38-6a3.75,3.75,0,0,0-.06-.37,6.1,6.1,0,0,0-.15,1.54c.06,3.81.13,7.61.17,11.43,0,3,0,6,0,8.94a13.86,13.86,0,0,0,.15,2.14,34,34,0,0,1,0,6.62c-.1,2.22-.12,4.41-.11,6.59a4.2,4.2,0,0,0,.34,1.42,4.32,4.32,0,0,1,.29,2.86.92.92,0,0,0,0,.4,2.27,2.27,0,0,1-1,2.42c-.95.57-1.89,1.17-2.83,1.71a1.66,1.66,0,0,1-.73.24c-.44,0-.47-.23-.18-.85.46-1,.94-2,1.39-2.94a5.65,5.65,0,0,0,.4-4c-.8-2.78-1.57-5.58-2.35-8.38a2.63,2.63,0,0,1-.09-.55,32.05,32.05,0,0,1,.24-6.46c.16-1.18.11-2.31.15-3.46a29.44,29.44,0,0,0-1.08-8.08c-.53-2.31-1.09-4.59-1.48-7a37.24,37.24,0,0,1-.22-9.06c.18-2.12.34-5.54.42-7.62,0-1.12.08-2.23.1-3.34a10.05,10.05,0,0,0-1-4.46,3,3,0,0,0-.45-.59L82,97c-.1.82-.22,1.65-.33,2.47a44.2,44.2,0,0,0,0,7.6,61,61,0,0,1-.28,7c-.11,1.42-.21,2.85-.3,4.26a.77.77,0,0,0,.12.45c.19.34.41.64.61,1,1,1.46.93,3.61.57,5.95a1.77,1.77,0,0,1-.33.69,2.68,2.68,0,0,1-.82.73,1,1,0,0,1-1.4-.33A10.57,10.57,0,0,1,79,125a2.21,2.21,0,0,1,0-.82,11.5,11.5,0,0,0,0-3c-.26-1.59-.33-3.31-.54-4.94a75.3,75.3,0,0,1-.21-9.56c0-.53.09-1.08.12-1.61,0-.72.12-1.47.11-2.16,0-2.23-.17-4.4,0-6.69.08-1.41.08-2.76.1-4.13a22,22,0,0,1,1.52-6.63,5.68,5.68,0,0,1,1.8-2.32c.47-.44,1-.77,1.46-1.16a1.27,1.27,0,0,0,.24-.24c.84-1,1.68-2.09,2.53-3.1a1.5,1.5,0,0,0,.38-1A13.17,13.17,0,0,0,86,74a4.66,4.66,0,0,0-.74-1.3A2,2,0,0,1,85.05,71a.85.85,0,0,1,.07-.29c.43-.52.28-1,.28-1.46,0-.21,0-.41,0-.61A5.8,5.8,0,0,1,87.21,64,6.09,6.09,0,0,1,88.62,62.95Z" fill="#fff"></path><g style="isolation: isolate;"><path d="M162.49,104.91c1.33-.71,1.41,2.06.08,2.78L121,130c-1.34.72-1.41-2.06-.08-2.78Z" fill="#fff"></path><path d="M161.59,72.37c1.33-.71,1.41,2.05.08,2.77L120.13,97.43c-1.34.72-1.41-2.05-.08-2.77Z" fill="#fff"></path><path d="M161.39,65.46c1.33-.71,1.41,2.06.08,2.78L119.94,90.53c-1.34.72-1.41-2.06-.08-2.78Z" fill="#fff"></path><path d="M161.2,58.56c1.33-.71,1.41,2.06.08,2.78L119.75,83.63c-1.34.72-1.41-2.06-.08-2.78Z" fill="#fff"></path><path d="M161,51.66c1.33-.71,1.41,2.05.08,2.77L119.56,76.73c-1.34.72-1.41-2.05-.08-2.77Z" fill="#fff"></path><path d="M161.87,15.29c5.17-2.77,9.52.59,9.71,7.52l2.63,94.38c.12,4.23-2.35,9.05-5.51,10.75l-94.45,50.7c-5.17,2.77-9.52-.59-9.71-7.52L61.89,76.17c-.11-3.92,2.17-8.38,5.1-10Zm-60.56,88.06c0-3.16-.15-6.32-.48-9.3-.24-2.06-.39-4.15-.44-6.32,0-.55,0-1.09-.08-1.62-.07-.79-.18-1.55-.27-2.34-.07-.6-.14-1.2-.18-1.81a11.71,11.71,0,0,0-.19-2.21,34.67,34.67,0,0,0-1.33-3.3,1.47,1.47,0,0,0-1.74-1c-.37.06-.75.12-1.12.2a4.11,4.11,0,0,1-1.08.3,25.6,25.6,0,0,1-2.73-.35c-.14,0-.27-.23-.31-.43a17.44,17.44,0,0,1,.23-4.31,3.9,3.9,0,0,1,.2-.58c.23-.8.51-1.61.67-2.4.07-.37,0-.92-.2-1s-.27-.45-.28-.81-.05-.87,0-1.32A1.82,1.82,0,0,0,91,62.81a2.49,2.49,0,0,0-2.38.13A6.09,6.09,0,0,0,87.21,64a5.8,5.8,0,0,0-1.82,4.64c0,.2,0,.4,0,.61,0,.47.15.94-.28,1.46a.85.85,0,0,0-.07.29,2,2,0,0,0,.26,1.62A4.66,4.66,0,0,1,86,74a13.17,13.17,0,0,1,.49,3.71,1.5,1.5,0,0,1-.38,1c-.85,1-1.68,2.06-2.53,3.1a1.27,1.27,0,0,1-.24.24c-.49.39-1,.72-1.46,1.16a5.68,5.68,0,0,0-1.8,2.32,22,22,0,0,0-1.52,6.63c0,1.37,0,2.72-.1,4.13-.14,2.28,0,4.46,0,6.69,0,.69-.06,1.44-.11,2.16,0,.53-.12,1.09-.12,1.61a75.28,75.28,0,0,0,.21,9.56c.21,1.63.28,3.35.54,4.94a11.5,11.5,0,0,1,0,3,2.21,2.21,0,0,0,0,.82,10.58,10.58,0,0,0,.8,1.75,1,1,0,0,0,1.4.33,2.68,2.68,0,0,0,.82-.73,1.77,1.77,0,0,0,.33-.69c.36-2.34.41-4.49-.57-5.95-.21-.32-.42-.63-.61-1a.77.77,0,0,1-.12-.45c.09-1.41.19-2.84.3-4.26a61,61,0,0,0,.28-7,44.19,44.19,0,0,1,0-7.6c.1-.82.22-1.65.33-2.47l.18-.12a3,3,0,0,1,.45.59,10.05,10.05,0,0,1,1,4.46c0,1.11-.06,2.23-.1,3.34-.08,2.08-.24,5.5-.42,7.62a37.24,37.24,0,0,0,.22,9.06c.39,2.41,1,4.69,1.48,7A29.44,29.44,0,0,1,85.86,137c0,1.15,0,2.28-.15,3.46a32.05,32.05,0,0,0-.24,6.46,2.63,2.63,0,0,0,.09.55c.78,2.8,1.54,5.6,2.35,8.38a5.65,5.65,0,0,1-.4,4c-.45,1-.92,2-1.39,2.94-.29.62-.25.87.18.85a1.54,1.54,0,0,0,.65-.19c1-.59,2-1.19,2.91-1.76a2.27,2.27,0,0,0,1-2.42.92.92,0,0,1,0-.4,4.32,4.32,0,0,0-.29-2.86,4.2,4.2,0,0,1-.34-1.42c0-2.18,0-4.37.11-6.59a33.94,33.94,0,0,0,0-6.62,13.87,13.87,0,0,1-.15-2.15c0-3,0-6,0-8.94,0-3.82-.12-7.62-.17-11.43,0-.48,0-1,0-1.47a.33.33,0,0,1,.17.31c.13,2,.29,4,.38,6,.19,4.36.32,8.75.56,13.07.09,1.77.11,3.56,0,5.4a12.73,12.73,0,0,0,.1,2.55,58.85,58.85,0,0,1,.63,6.23,11.8,11.8,0,0,1-.13,4.58,5.61,5.61,0,0,0-.2,2.66,2.58,2.58,0,0,1,.06.81c-.06.79.33,1.5.82,1.29,1.16-.51,2.3-1.05,3.46-1.65.25-.13.49-.57.74-.87-.13-.22-.25-.45-.38-.66l-.15-.11a17.27,17.27,0,0,1-1.48-1.59,3.1,3.1,0,0,1-.37-2.42c.54-3.15,1-6.28,1.59-9.43a17.69,17.69,0,0,0-.08-7.56,29,29,0,0,1-.53-7.55c.08-2,.49-4.19.76-6.31.3-2.31.68-4.63.89-6.9a39,39,0,0,0-.25-9.72c-.29-1.76-.48-3.59-.68-5.41-.16-1.53-.29-3.08-.41-4.62a16.18,16.18,0,0,1,.67-5.33c.09-.36.26-.71.46-1.24a3,3,0,0,1,.25.54,28.69,28.69,0,0,1,.65,4.61,96.17,96.17,0,0,0,1.25,14.42,2.68,2.68,0,0,1-.17,1.15,11.39,11.39,0,0,0-.65,7.57.52.52,0,0,0,.4.4,1.29,1.29,0,0,0,.81-.16,3.2,3.2,0,0,0,1.34-1.83,17.66,17.66,0,0,0,.54-1.92,5,5,0,0,0,.09-1.28,14.12,14.12,0,0,1-.18-2.85c.18-2.11.36-4.22.34-6.24M118,55.71l0,.7c0,1.58,1,2.34,2.21,1.71L159.46,37a4.69,4.69,0,0,0,2-4l0-.7c0-1.58-1-2.34-2.21-1.71L120,51.72a4.69,4.69,0,0,0-2,4M162,87c1.33-.71,1.25-3.49-.08-2.78L120.39,106.5c-1.33.71-1.26,3.5.08,2.78L162,87m.38,13.81c1.33-.71,1.25-3.49-.08-2.78l-41.53,22.29c-1.33.71-1.26,3.5.08,2.78l41.53-22.29m-.19-6.9c1.33-.71,1.25-3.49-.08-2.78l-41.53,22.29c-1.33.71-1.26,3.5.08,2.78l41.53-22.29m.38,13.8c1.33-.71,1.25-3.49-.08-2.78L121,127.2c-1.33.71-1.26,3.5.08,2.78l41.53-22.29m-1.1-39.45c1.33-.71,1.25-3.49-.08-2.78L119.87,87.75c-1.33.71-1.26,3.5.08,2.78l41.53-22.29m-.19-6.9c1.33-.71,1.25-3.49-.08-2.78L119.67,80.86c-1.33.71-1.26,3.5.08,2.78l41.53-22.29m.38,13.8c1.33-.71,1.25-3.48-.08-2.77L120.06,94.66c-1.33.71-1.26,3.49.08,2.77l41.53-22.29m-.58-20.71c1.33-.71,1.25-3.48-.08-2.77L119.48,74c-1.33.71-1.26,3.49.08,2.77l41.53-22.29" fill="#5AB045"></path><path d="M162.3,98c1.33-.71,1.41,2.06.08,2.78l-41.53,22.29c-1.34.72-1.41-2.06-.08-2.78Z" fill="#fff"></path><path d="M162.11,91.11c1.33-.71,1.41,2.06.08,2.78l-41.53,22.29c-1.34.72-1.41-2.06-.08-2.78Z" fill="#fff"></path><path d="M161.92,84.21c1.33-.71,1.41,2.06.08,2.78l-41.53,22.29c-1.34.72-1.41-2.06-.08-2.78Z" fill="#fff"></path><path d="M159.28,30.64c1.18-.63,2.16.13,2.21,1.71l0,.7a4.69,4.69,0,0,1-2,4L120.19,58.12C119,58.75,118,58,118,56.41l0-.7a4.69,4.69,0,0,1,2-4Z" fill="#fff"></path></g><path d="M220.53,97.85s7.53,2.13,9.38,7.32-6.8,14.87-7.9,17.49-2.47,32.63-5.29,32.84S205,150,204.64,148.82s.82-26.73,2.4-33.11,6.9-15.35,6.9-15.35" fill="#cecece"></path><path d="M217.19,228.83c.07.49,1.82,6.92.7,8.39s-1.19.07-4.89,2.45-6.85,7.13-11,6.43-4.33-1.75-3.22-3.91,10-12,10-12" fill="#622745"></path><path d="M218.39,230.08s-2.69,3.23-6.47,3.56-5.72-3.56-5.72-3.56-5.6-37.3-5.49-39.56,1.29-41.29,2.69-42.58,15,6.38,15,6.38,1.67,20.57.57,21.11-5.74-.43-6,.32-1.19,16.39-1.19,18.33S218.39,230.08,218.39,230.08Z" fill="#232b5e"></path><path d="M231.23,197.61s7.7,38.88,6.64,41.15-5.47,4.25-11.84.76c0,0-6.75-36.36-7.07-44.77" fill="#232b5e"></path><path d="M214.18,96.7c-.24,0-6.88-1.6-10.6,1.74s-1.77,33-1.69,37.14c.11,5.81-.45,18.73-.45,18.73h0s-2.81,36.48-2.08,37.66,5.36,1.27,5.8-12.22.22-37,.7-43.6c.51-6.91,1.31-28.46,9.45-35.56" fill="#fff"></path><path d="M214.52,102.87s-1.41.9-3.27,4.94-3.66,15.46-4.3,19.5-1.35,15.26-1.35,15.26-.51-18.86-.45-23.54,1-12,1-12a17.83,17.83,0,0,0,3-.83c-.19-.13-1.73-2-1.73-2s2.37-6.22,8.91-6.16" fill="#dee8ff"></path><path d="M231.91,105.16c.24.24,5.92,2.56,9.68,10.79s5.36,26.63,5.28,35.51-3.52,23.43-3.52,23.43-8-2.24-9-2.8c0,0,4.08-15.67,3-24.55a62.89,62.89,0,0,0-3.8-15.19s.45,25.19.85,30.39,3.92,32,3.68,35.43-6.64,5.6-11.52,5.28-9.84-3.92-10.56-5.52,0-52.54,0-52.54,5.07-22.16,6.59-25.83S231.91,105.16,231.91,105.16Z" fill="#fff"></path><path d="M226.21,100.61s5.09,2.18,6.76,4.55-1.25,10.45-3.38,11.16l-4.44-1,1.92,4.62s-5.39,8.66-6.6,11.67-4.49,14.49-4.68,15.32,1.73-20.2,3.21-25,6.24-9.49,7.57-12.76S227,101.31,226.21,100.61Z" fill="#dee8ff"></path><path d="M224.6,93.57l-.52,7.86s-2.17,4.19-6,4.08-3.26-7.19-3.26-7.19" fill="#fda6a5"></path><path d="M209.72,88.66a5,5,0,0,1-1.48-3c-.13-1.81.35-4.84,4.4-6.32a3.57,3.57,0,0,1,2,.39s.19-2.19,4.58-2.19,9.35,2.13,10.84,7.16-1.39,10.71-4.52,11.68a10.21,10.21,0,0,1-5,.52" fill="#642f4c"></path><path d="M212.31,83.25A38.56,38.56,0,0,0,211.23,87a21.69,21.69,0,0,0-.3,5.4,18.82,18.82,0,0,0,.48,4.81c.49,1.7,1.35,4.17,3.17,4.87,2.39.92,6.8-1.9,7.78-3.86a24.1,24.1,0,0,0,1.53-4s3.43-.61,2.76-3.31-3.06-1.16-3.06-1.16.18-2.82-1.72-4.17S213.29,84,212.31,83.25Z" fill="#ffb4b1"></path><path d="M237.11,238.26c0,.91.07,6.64,0,8.74s.28,11.88-5.52,12.16-2.8-15.38-2.59-19.09" fill="#622745"></path><path d="M234.9,172.61s-.54,2.23-1.58,2.89-2.89,1.42-3,2.67,3,.33,3,.33-3.22,3.1-3.05,4.41.6,3.81,2,4.46,4-.11,4.57-1.09,3.65-5.2,4-6.17,1.57-5.48,1.57-5.48S235.94,172.51,234.9,172.61Z" fill="#ffb4b1"></path><polygon points="109.48 128.75 109.48 74.38 175.54 113.28 175.54 168.34 109.48 128.75" fill="#5AB045" opacity="0.42"></polygon><polygon points="159.21 192.41 159.21 138.03 225.27 176.94 225.27 232 159.21 192.41" fill="#5AB045" opacity="0.42"></polygon><path d="M329.79,211.78c9-5.87,18.12-11.64,27.19-17.45l-17.22-12.57-31.23,13C314.53,201.61,322,206.92,329.79,211.78Z" fill="url(#linear-gradient-3)"></path><path d="M363.51,149.79a3.05,3.05,0,0,0-.53-1.14,6.8,6.8,0,0,0-1.67-1.45c-8.47-5.73-20.18-7.31-29.13-1.71-2,1.28-5.08,4.18-3.87,6.91.7,1.59,2.83,2.51,4.3,3.16,4.8,2.11,10.16,3.12,15.31,4,1.9.32,3.81.64,5.73.82a7.91,7.91,0,0,0,7-3C362,155.7,364.11,152.27,363.51,149.79Z" fill="#754c24"></path><path d="M328.08,151.16s7.72,7,21.06,6,14.38-7.34,14.38-7.34-3.45,44.21-5.28,45-8.64,4-11.92,4.29-13.69-3.92-13.95-5.07S328.08,151.16,328.08,151.16Z" fill="#ff8f6f"></path><path d="M330.51,86.73c-.41-.83-1.67-.1-1.26.73,9.13,18.4,10.91,39.12,12.55,59.24.07.92,1.53.93,1.46,0C341.6,126.3,339.76,105.37,330.51,86.73Z" fill="#007f68"></path><path d="M329.35,86.9s2.55,9.55-.08,14.32-4.81,5.73-1.66,11.69,11.55,6.73,12.12,11.28S335.69,95,329.35,86.9Z" fill="#007f68"></path><path d="M358.54,104.14a120.05,120.05,0,0,0-11.58,47c0,1.13,1.73,1.13,1.78,0A117.87,117.87,0,0,1,360.08,105C360.56,104,359,103.12,358.54,104.14Z" fill="#007f68"></path><path d="M359.79,108.8c0-1-.21-2.84-.11-4.53q-.5.33-1,.64c-3.47,8.43-8.64,28.23-10.2,34.3,2.11-4.54,10.75-5.16,13.28-11.69a11.92,11.92,0,0,0,.15-8.61A31.77,31.77,0,0,1,359.79,108.8Z" fill="#007f68"></path><polygon points="280.26 24.77 256.75 10.93 256.75 87.57 280.26 101.66 280.26 24.77" fill="#5AB045" opacity="0.42"></polygon><polyline points="157.09 133.31 166.21 133.39 166.75 126 160.85 126.67" fill="#fda6a5"></polyline><path d="M203.58,98.45S185.94,121.36,183,121.36s-20.27,1.56-20.27,1.56-1.37,11.15,3.87,12.75,18.22-1.59,23.46-2.51S205.16,119,205.16,119" fill="#fff"></path><path d="M157.95,133.06s2.57-1.47,3.29-3.44,3.06-6.18,2.8-7.42-4.07,3.74-4.28,2.61S159.23,114,158,114s-.36,10.6-1.49,8.49-1.27-8.69-2.81-9,1.25,10.29-.34,9.12-4.58-9.72-5.15-7.16,4.58,9.87,2.92,9.24-4.72-4.68-4.69-2.18,4,5.59,4,5.59S154.3,133.35,157.95,133.06Z" fill="#ffb4b1"></path></svg>