<svg width="50" height="50" viewBox="0 0 50 50" fill="none" xmlns="http://www.w3.org/2000/svg">
<circle cx="25" cy="25" r="25" fill="#FFBCB5"/>
<g clip-path="url(#clip0_117_125)">
<path d="M21.8571 32.3125C21.8571 32.7594 21.5036 33.125 21.0714 33.125C20.6393 33.125 20.2857 32.7594 20.2857 32.3125V21.75C20.2857 21.3031 20.6393 20.9375 21.0714 20.9375C21.5036 20.9375 21.8571 21.3031 21.8571 21.75V32.3125ZM25.7857 32.3125C25.7857 32.7594 25.4321 33.125 25 33.125C24.5679 33.125 24.2143 32.7594 24.2143 32.3125V21.75C24.2143 21.3031 24.5679 20.9375 25 20.9375C25.4321 20.9375 25.7857 21.3031 25.7857 21.75V32.3125ZM29.7143 32.3125C29.7143 32.7594 29.3607 33.125 28.9286 33.125C28.4964 33.125 28.1429 32.7594 28.1429 32.3125V21.75C28.1429 21.3031 28.4964 20.9375 28.9286 20.9375C29.3607 20.9375 29.7143 21.3031 29.7143 21.75V32.3125ZM29.5915 13.2665L31.3938 16.0625H34.8214C35.4746 16.0625 36 16.6084 36 17.2812C36 17.9566 35.4746 18.5 34.8214 18.5H34.4286V33.9375C34.4286 36.182 32.6705 38 30.5 38H19.5C17.3304 38 15.5714 36.182 15.5714 33.9375V18.5H15.1786C14.5279 18.5 14 17.9566 14 17.2812C14 16.6084 14.5279 16.0625 15.1786 16.0625H18.6072L20.4085 13.2665C20.9192 12.4752 21.7786 12 22.6969 12H27.3031C28.2214 12 29.0808 12.4752 29.5915 13.2665ZM21.4397 16.0625H28.5603L27.6272 14.6183C27.5536 14.5055 27.4308 14.4375 27.3031 14.4375H22.6969C22.5692 14.4375 22.4022 14.5055 22.3728 14.6183L21.4397 16.0625ZM17.9286 33.9375C17.9286 34.8363 18.6323 35.5625 19.5 35.5625H30.5C31.3692 35.5625 32.0714 34.8363 32.0714 33.9375V18.5H17.9286V33.9375Z" fill="#E74C3C"/>
</g>
<defs>
<clipPath id="clip0_117_125">
<rect width="22" height="26" fill="white" transform="translate(14 12)"/>
</clipPath>
</defs>
</svg>
